<svg xmlns="http://www.w3.org/2000/svg" width="20" height="24" fill="none"><path fill="#171717" d="m10.046 13.4-4.919 4.9a.954.954 0 0 1-.702.275.954.954 0 0 1-.703-.275.946.946 0 0 1-.276-.7c0-.283.092-.517.276-.7L8.64 12 3.72 7.1a.946.946 0 0 1-.275-.7c0-.283.092-.517.276-.7a.954.954 0 0 1 .703-.275c.284 0 .518.092.702.275l4.92 4.9 4.918-4.9a.954.954 0 0 1 .703-.275c.284 0 .518.092.702.275a.946.946 0 0 1 .276.7.946.946 0 0 1-.276.7L11.451 12l4.92 4.9a.946.946 0 0 1 .275.7.946.946 0 0 1-.276.7.953.953 0 0 1-.702.275.954.954 0 0 1-.703-.275l-4.919-4.9Z"/></svg>