<svg xmlns="http://www.w3.org/2000/svg" width="153" height="153" fill="none"><path fill="#171717" d="M25.5 121.125V63.75c0-2.019.453-3.931 1.358-5.737.905-1.807 2.152-3.294 3.742-4.463l38.25-28.687c2.231-1.7 4.781-2.55 7.65-2.55 2.869 0 5.419.85 7.65 2.55L122.4 53.55a12.247 12.247 0 0 1 3.748 4.463 12.57 12.57 0 0 1 1.352 5.737v57.375c0 3.506-1.249 6.509-3.748 9.008-2.499 2.499-5.5 3.746-9.002 3.742H95.625c-1.806 0-3.32-.612-4.539-1.836-1.22-1.224-1.832-2.737-1.836-4.539V95.625c0-1.806-.612-3.32-1.836-4.539-1.224-1.22-2.737-1.832-4.539-1.836h-12.75c-1.806 0-3.32.612-4.539 1.836-1.22 1.224-1.832 2.737-1.836 4.539V127.5c0 1.806-.612 3.321-1.836 4.545-1.224 1.224-2.737 1.834-4.539 1.83H38.25c-3.506 0-6.507-1.247-9.002-3.742-2.494-2.495-3.744-5.498-3.748-9.008Z"/></svg>