<svg xmlns="http://www.w3.org/2000/svg" width="34" height="34" fill="none"><path fill="#D31638" d="M9.917 29.75c-.78 0-1.446-.277-2-.832a2.734 2.734 0 0 1-.834-2.001V8.5c-.401 0-.737-.136-1.008-.408a1.378 1.378 0 0 1-.408-1.009c-.001-.4.135-.736.408-1.008a1.373 1.373 0 0 1 1.008-.408h5.667c0-.402.136-.738.408-1.009a1.377 1.377 0 0 1 1.009-.408h5.666c.402 0 .738.136 1.01.408.272.272.408.608.407 1.009h5.667c.401 0 .738.136 1.01.408.272.272.407.608.406 1.008 0 .4-.137.737-.408 1.01a1.355 1.355 0 0 1-1.008.407v18.417c0 .779-.277 1.446-.832 2.001a2.721 2.721 0 0 1-2.002.832H9.917Zm4.25-5.667c.401 0 .738-.136 1.01-.408.272-.272.407-.608.406-1.008V12.75c0-.401-.136-.738-.408-1.009a1.378 1.378 0 0 0-1.008-.408c-.4 0-.737.135-1.009.408-.272.273-.408.61-.408 1.009v9.917c0 .401.136.738.408 1.01.272.272.608.407 1.009.406Zm5.666 0a1.37 1.37 0 0 0 1.01-.408c.272-.272.408-.608.407-1.008V12.75c0-.401-.136-.738-.408-1.009a1.378 1.378 0 0 0-1.009-.408c-.4 0-.736.135-1.008.408-.272.273-.408.61-.408 1.009v9.917c0 .401.136.738.408 1.01.272.272.608.407 1.008.406Z"/></svg>